<svg xmlns="http://www.w3.org/2000/svg" viewBox="0 0 1000 1000" width="1000" height="1000" role="img"><title>窗映四色 · 彩玻窗格</title><desc>木色边框环绕彩色玻璃与中心画心的原创满洲窗意象。依据画心与衬底的空间关系整理；几何排列和中心植物为当代设计，不是实物临摹。</desc><rect x="0" y="0" width="1000" height="1000" fill="#e5d7b8" /><rect x="148" y="78" width="726" height="862" fill="#c4af86" /><rect x="123" y="63" width="734" height="862" fill="#4d6855" /><rect x="153" y="93" width="674" height="802" fill="#926647" /><rect x="170" y="110" width="79" height="84" fill="#d09a55" /><rect x="170" y="206" width="79" height="84" fill="#b8c7ad" /><rect x="170" y="302" width="79" height="84" fill="#a4493e" /><rect x="170" y="398" width="79" height="84" fill="#5f9b91" /><rect x="170" y="494" width="79" height="84" fill="#d09a55" /><rect x="170" y="590" width="79" height="84" fill="#b8c7ad" /><rect x="170" y="686" width="79" height="84" fill="#a4493e" /><rect x="170" y="782" width="79" height="84" fill="#5f9b91" /><rect x="261" y="110" width="79" height="84" fill="#5f9b91" /><rect x="261" y="206" width="79" height="84" fill="#d09a55" /><rect x="261" y="302" width="79" height="84" fill="#b8c7ad" /><rect x="261" y="398" width="79" height="84" fill="#a4493e" /><rect x="261" y="494" width="79" height="84" fill="#5f9b91" /><rect x="261" y="590" width="79" height="84" fill="#d09a55" /><rect x="261" y="686" width="79" height="84" fill="#b8c7ad" /><rect x="261" y="782" width="79" height="84" fill="#a4493e" /><rect x="352" y="110" width="79" height="84" fill="#a4493e" /><rect x="352" y="206" width="79" height="84" fill="#5f9b91" /><rect x="352" y="302" width="79" height="84" fill="#d09a55" /><rect x="352" y="398" width="79" height="84" fill="#b8c7ad" /><rect x="352" y="494" width="79" height="84" fill="#a4493e" /><rect x="352" y="590" width="79" height="84" fill="#5f9b91" /><rect x="352" y="686" width="79" height="84" fill="#d09a55" /><rect x="352" y="782" width="79" height="84" fill="#b8c7ad" /><rect x="443" y="110" width="79" height="84" fill="#b8c7ad" /><rect x="443" y="206" width="79" height="84" fill="#a4493e" /><rect x="443" y="302" width="79" height="84" fill="#5f9b91" /><rect x="443" y="398" width="79" height="84" fill="#d09a55" /><rect x="443" y="494" width="79" height="84" fill="#b8c7ad" /><rect x="443" y="590" width="79" height="84" fill="#a4493e" /><rect x="443" y="686" width="79" height="84" fill="#5f9b91" /><rect x="443" y="782" width="79" height="84" fill="#d09a55" /><rect x="534" y="110" width="79" height="84" fill="#d09a55" /><rect x="534" y="206" width="79" height="84" fill="#b8c7ad" /><rect x="534" y="302" width="79" height="84" fill="#a4493e" /><rect x="534" y="398" width="79" height="84" fill="#5f9b91" /><rect x="534" y="494" width="79" height="84" fill="#d09a55" /><rect x="534" y="590" width="79" height="84" fill="#b8c7ad" /><rect x="534" y="686" width="79" height="84" fill="#a4493e" /><rect x="534" y="782" width="79" height="84" fill="#5f9b91" /><rect x="625" y="110" width="79" height="84" fill="#5f9b91" /><rect x="625" y="206" width="79" height="84" fill="#d09a55" /><rect x="625" y="302" width="79" height="84" fill="#b8c7ad" /><rect x="625" y="398" width="79" height="84" fill="#a4493e" /><rect x="625" y="494" width="79" height="84" fill="#5f9b91" /><rect x="625" y="590" width="79" height="84" fill="#d09a55" /><rect x="625" y="686" width="79" height="84" fill="#b8c7ad" /><rect x="625" y="782" width="79" height="84" fill="#a4493e" /><rect x="716" y="110" width="79" height="84" fill="#a4493e" /><rect x="716" y="206" width="79" height="84" fill="#5f9b91" /><rect x="716" y="302" width="79" height="84" fill="#d09a55" /><rect x="716" y="398" width="79" height="84" fill="#b8c7ad" /><rect x="716" y="494" width="79" height="84" fill="#a4493e" /><rect x="716" y="590" width="79" height="84" fill="#5f9b91" /><rect x="716" y="686" width="79" height="84" fill="#d09a55" /><rect x="716" y="782" width="79" height="84" fill="#b8c7ad" /><rect x="297" y="286" width="406" height="452" fill="#684e36" /><rect x="313" y="302" width="374" height="420" fill="#f4e4bd" /><circle cx="500" cy="493" r="128" fill="#e7d39e" /><path d="M372 676Q492 578 524 356" fill="none" stroke="#477c64" stroke-width="7"/><g transform="translate(464 564) rotate(-50) scale(0.8)"><path d="M0 0Q-38 -70 0 -132Q38 -70 0 0Z" fill="#6b916b" /><path d="M0 -4L0 -113" fill="none" stroke="#b8c9a1" stroke-width="2"/></g><g transform="translate(503 480) rotate(35) scale(0.7)"><path d="M0 0Q-38 -70 0 -132Q38 -70 0 0Z" fill="#3d7c67" /><path d="M0 -4L0 -113" fill="none" stroke="#b8c9a1" stroke-width="2"/></g><g transform="translate(432 615) rotate(-35) scale(0.7)"><path d="M0 0Q-38 -70 0 -132Q38 -70 0 0Z" fill="#80a276" /><path d="M0 -4L0 -113" fill="none" stroke="#b8c9a1" stroke-width="2"/></g><g transform="translate(520 378) scale(0.53)"><g transform="rotate(0)"><path d="M0 0C-43 -32 -29 -98 0 -107C29 -98 43 -32 0 0" fill="#ba5540" /></g><g transform="rotate(45)"><path d="M0 0C-43 -32 -29 -98 0 -107C29 -98 43 -32 0 0" fill="#ba5540" /></g><g transform="rotate(90)"><path d="M0 0C-43 -32 -29 -98 0 -107C29 -98 43 -32 0 0" fill="#ba5540" /></g><g transform="rotate(135)"><path d="M0 0C-43 -32 -29 -98 0 -107C29 -98 43 -32 0 0" fill="#ba5540" /></g><g transform="rotate(180)"><path d="M0 0C-43 -32 -29 -98 0 -107C29 -98 43 -32 0 0" fill="#ba5540" /></g><g transform="rotate(225)"><path d="M0 0C-43 -32 -29 -98 0 -107C29 -98 43 -32 0 0" fill="#ba5540" /></g><g transform="rotate(270)"><path d="M0 0C-43 -32 -29 -98 0 -107C29 -98 43 -32 0 0" fill="#ba5540" /></g><g transform="rotate(315)"><path d="M0 0C-43 -32 -29 -98 0 -107C29 -98 43 -32 0 0" fill="#ba5540" /></g><circle cx="0" cy="0" r="21" fill="#d8a04d" /><circle cx="0" cy="0" r="9" fill="#f7e8cb" /></g><g transform="translate(448 545) scale(0.39)"><g transform="rotate(0)"><path d="M0 0C-43 -32 -29 -98 0 -107C29 -98 43 -32 0 0" fill="#ba5540" /></g><g transform="rotate(45)"><path d="M0 0C-43 -32 -29 -98 0 -107C29 -98 43 -32 0 0" fill="#ba5540" /></g><g transform="rotate(90)"><path d="M0 0C-43 -32 -29 -98 0 -107C29 -98 43 -32 0 0" fill="#ba5540" /></g><g transform="rotate(135)"><path d="M0 0C-43 -32 -29 -98 0 -107C29 -98 43 -32 0 0" fill="#ba5540" /></g><g transform="rotate(180)"><path d="M0 0C-43 -32 -29 -98 0 -107C29 -98 43 -32 0 0" fill="#ba5540" /></g><g transform="rotate(225)"><path d="M0 0C-43 -32 -29 -98 0 -107C29 -98 43 -32 0 0" fill="#ba5540" /></g><g transform="rotate(270)"><path d="M0 0C-43 -32 -29 -98 0 -107C29 -98 43 -32 0 0" fill="#ba5540" /></g><g transform="rotate(315)"><path d="M0 0C-43 -32 -29 -98 0 -107C29 -98 43 -32 0 0" fill="#ba5540" /></g><circle cx="0" cy="0" r="21" fill="#d8a04d" /><circle cx="0" cy="0" r="9" fill="#f7e8cb" /></g><rect x="116" y="916" width="748" height="25" fill="#65523c" /></svg>